<svg width="318" height="163" viewBox="0 0 318 163" fill="none" xmlns="http://www.w3.org/2000/svg">
<path d="M107 17.28C103.444 16.384 101.444 12.0533 100.889 10L97 15.6C97.3704 16.9067 98.5556 19.856 100.333 21.2C102.111 22.544 105.519 23.6267 107 24L112 18.4C111.815 18.4 110.556 18.176 107 17.28Z" fill="#6513EA"/>
<path d="M38.7603 149.059C42.3813 149.722 44.6619 153.9 45.3495 155.906L48.891 150.088C48.4365 148.812 47.0607 145.956 45.1931 144.733C43.3255 143.511 39.8411 142.653 38.3323 142.377L33.6771 148.266C33.8628 148.255 35.1393 148.397 38.7603 149.059Z" fill="#F10B71"/>
<path d="M291.499 14.1439C285.36 13.4078 282.789 4.43636 281.429 1.14392L273.999 9.64391C273.999 11.6439 274.999 16.6439 279.999 21.1439C285.715 26.2882 290.618 24.6438 293.176 24.9505L300.371 14.5935C300.061 14.6327 297.639 14.88 291.499 14.1439Z" fill="#00C5B9"/>
<path d="M304.937 123.483C305.681 117.344 314.656 114.786 317.951 113.43L309.461 105.989C307.461 105.986 302.46 106.98 297.953 111.973C292.801 117.682 294.438 122.587 294.128 125.145L304.475 132.354C304.436 132.044 304.192 129.622 304.937 123.483Z" fill="#FF0000"/>
<path d="M300.592 67.9406C303.366 68.2345 304.582 72.2655 305.216 73.7422L308.514 69.8618C308.502 68.9596 308.02 66.7104 305.736 64.7115C303.126 62.4265 300.925 63.1988 299.769 63.0763L296.588 67.7929C296.727 67.7733 297.818 67.6467 300.592 67.9406Z" fill="#EE1D63"/>
<path d="M274.821 155.291C276.701 157.352 274.934 161.173 274.429 162.699L279.471 161.986C280.061 161.303 281.193 159.3 280.812 156.29C280.376 152.848 278.217 151.965 277.433 151.106L271.923 152.522C272.041 152.6 272.941 153.23 274.821 155.291Z" fill="#C436DB"/>
<path d="M27.7308 19.4462C37.5462 17.2238 40 7.40807 40 2.77802L25.5 0C26.2436 0.926008 26.7269 3.77811 22.7115 7.77847C18.6962 11.7788 13.2308 13.5197 11 13.8901C12.4872 16.6681 17.9154 21.6686 27.7308 19.4462Z" fill="#FF2567"/>
<path d="M12.3324 70.0762C4.25051 70.5371 0.99113 78.0241 0.371675 81.7099L11.4999 85.8542C11.034 85.0179 11.0323 82.683 14.7521 80.0336C18.4719 77.3842 23.0394 76.7268 24.8581 76.7293C24.0503 74.3196 20.4143 69.6153 12.3324 70.0762Z" fill="#00C801"/>
</svg>
